<?xml version="1.0" encoding="UTF-8"?>
<svg version="1.1" xmlns="http://www.w3.org/2000/svg" width="210" height="45">
<path d="M0 0 C3.45826342 -0.05789006 6.91640293 -0.09355821 10.375 -0.125 C11.35984375 -0.14175781 12.3446875 -0.15851562 13.359375 -0.17578125 C14.77089844 -0.18544922 14.77089844 -0.18544922 16.2109375 -0.1953125 C17.51490479 -0.21102295 17.51490479 -0.21102295 18.84521484 -0.22705078 C21 0 21 0 23 2 C22.625 5.625 22.625 5.625 22 9 C18.7 9 15.4 9 12 9 C14.31 14.94 16.62 20.88 19 27 C20.88790211 24.16814684 22.08890485 21.59226902 23.3828125 18.45703125 C23.82753906 17.38388672 24.27226562 16.31074219 24.73046875 15.20507812 C25.19066406 14.08552734 25.65085938 12.96597656 26.125 11.8125 C26.82689453 10.11577148 26.82689453 10.11577148 27.54296875 8.38476562 C28.69818968 5.59101706 29.85040988 2.7960692 31 0 C33.64 0 36.28 0 39 0 C42.04866872 8.80049038 33.51265352 21.99099237 29.99853516 29.96459961 C29.41918213 31.28536499 29.41918213 31.28536499 28.828125 32.6328125 C28.3007373 33.82221436 28.3007373 33.82221436 27.76269531 35.03564453 C26.87935233 36.95952927 26.87935233 36.95952927 27 39 C26.34 39 25.68 39 25 39 C24.67 40.32 24.34 41.64 24 43 C18.58461538 44.23076923 18.58461538 44.23076923 15.625 43.0625 C15.08875 42.711875 14.5525 42.36125 14 42 C14 41.01 14 40.02 14 39 C13.34 38.67 12.68 38.34 12 38 C11.15723452 36.09268864 10.4010382 34.14682476 9.6875 32.1875 C7.99969404 27.64685388 6.25920394 23.15038789 4.375 18.6875 C3.96765625 17.71039062 3.5603125 16.73328125 3.140625 15.7265625 C2.43090793 14.03004703 1.71352203 12.33669331 0.984375 10.6484375 C-0.69406307 6.57441056 -1.06086157 4.2361801 0 0 Z " fill="#303030" transform="translate(128,1)"/>
<path d="M0 0 C2.31 0 4.62 0 7 0 C7 0.66 7 1.32 7 2 C7.66 2.33 8.32 2.66 9 3 C8.3125 5.875 8.3125 5.875 7 9 C4.4375 10.1875 4.4375 10.1875 2 11 C1.67 11.99 1.34 12.98 1 14 C1.75023437 14.17015625 2.50046875 14.3403125 3.2734375 14.515625 C19.83350785 18.43664921 19.83350785 18.43664921 25.625 23.125 C27.63426459 27.32618959 27.66793625 31.41764668 27 36 C26.34 36.99 25.68 37.98 25 39 C24.34 39 23.68 39 23 39 C23 39.66 23 40.32 23 41 C15.71428571 44.57142857 15.71428571 44.57142857 11 43 C10.375 40.1875 10.375 40.1875 10 37 C12.21934164 33.67098753 13.34683329 33.24976756 17 32 C13.98772636 28.54918533 11.56494011 27.25872476 7.1875 26 C-4.53348161 22.32198746 -4.53348161 22.32198746 -7.5 17.625 C-8.14588532 14.23410206 -8.06084104 12.31512826 -7 9 C-5.56322319 7.04892239 -4.03125685 5.28336068 -2.375 3.515625 C-0.90212254 2.02904223 -0.90212254 2.02904223 0 0 Z " fill="#212121" transform="translate(9,1)"/>
<path d="M0 0 C2.64 0 5.28 0 8 0 C9.65702967 3.31405935 9.14162705 7.01378048 9.1328125 10.65625 C9.13376923 11.51432251 9.13472595 12.37239502 9.13571167 13.25646973 C9.13639272 15.07218499 9.13454367 16.88790268 9.13037109 18.70361328 C9.12502178 21.48866221 9.13031861 24.27354986 9.13671875 27.05859375 C9.13605796 28.82031286 9.13477676 30.58203186 9.1328125 32.34375 C9.13483673 33.18023071 9.13686096 34.01671143 9.13894653 34.87854004 C9.11495917 40.77008166 9.11495917 40.77008166 8 43 C5.125 43.75 5.125 43.75 2 44 C1.01 43.34 0.02 42.68 -1 42 C-1.27905954 38.97239517 -1.37166825 36.15214349 -1.328125 33.125 C-1.32625183 32.24473145 -1.32437866 31.36446289 -1.32244873 30.45751953 C-1.31572028 28.59468809 -1.3017901 26.73187097 -1.28125 24.86914062 C-1.25012619 22.01158579 -1.24028342 19.15458243 -1.234375 16.296875 C-1.22520395 14.48957658 -1.21482785 12.6822838 -1.203125 10.875 C-1.19887512 10.01664551 -1.19462524 9.15829102 -1.19024658 8.27392578 C-1.1171875 2.234375 -1.1171875 2.234375 0 0 Z " fill="#2C2B2C" transform="translate(92,1)"/>
<path d="M0 0 C0.68429077 -0.00095673 1.36858154 -0.00191345 2.0736084 -0.00289917 C3.52286877 -0.0035808 4.97213218 -0.00172773 6.42138672 0.00244141 C8.64687928 0.00778998 10.87217001 0.0024959 13.09765625 -0.00390625 C14.50260461 -0.00324547 15.90755285 -0.0019643 17.3125 0 C18.59962891 0.00112793 19.88675781 0.00225586 21.21289062 0.00341797 C24.15625 0.1328125 24.15625 0.1328125 25.15625 1.1328125 C25.29740161 3.80340101 25.19872107 6.45713488 25.15625 9.1328125 C19.46802789 10.86134923 13.41606481 10.31726653 7.53125 10.3203125 C6.27828125 10.33255859 5.0253125 10.34480469 3.734375 10.35742188 C2.54070313 10.35935547 1.34703125 10.36128906 0.1171875 10.36328125 C-0.97803223 10.36739014 -2.07325195 10.37149902 -3.20166016 10.37573242 C-5.84375 10.1328125 -5.84375 10.1328125 -7.84375 8.1328125 C-8.03125 4.5703125 -8.03125 4.5703125 -7.84375 1.1328125 C-5.93525052 -0.77568698 -2.52896226 0.00221617 0 0 Z " fill="#272627" transform="translate(54.84375,34.8671875)"/>
<path d="M0 0 C0.68429077 -0.00095673 1.36858154 -0.00191345 2.0736084 -0.00289917 C3.52286877 -0.0035808 4.97213218 -0.00172773 6.42138672 0.00244141 C8.64687928 0.00778998 10.87217001 0.0024959 13.09765625 -0.00390625 C14.50260461 -0.00324547 15.90755285 -0.0019643 17.3125 0 C18.59962891 0.00112793 19.88675781 0.00225586 21.21289062 0.00341797 C24.15625 0.1328125 24.15625 0.1328125 25.15625 1.1328125 C25.29740161 3.80340101 25.19872107 6.45713488 25.15625 9.1328125 C20.61727295 9.15746642 16.07833457 9.17565039 11.53930664 9.18774414 C9.99405234 9.1927839 8.44880284 9.1996157 6.90356445 9.20825195 C4.68699971 9.22033326 2.47049782 9.22604423 0.25390625 9.23046875 C-0.78829323 9.23821068 -0.78829323 9.23821068 -1.85154724 9.24610901 C-3.5160433 9.24630527 -5.18040499 9.19470379 -6.84375 9.1328125 C-7.84375 8.1328125 -7.84375 8.1328125 -7.96875 4.6328125 C-7.75551585 -1.33774357 -5.40565758 0.00473706 0 0 Z " fill="#2A2A2A" transform="translate(54.84375,0.8671875)"/>
<path d="M0 0 C0.68429077 -0.00095673 1.36858154 -0.00191345 2.0736084 -0.00289917 C3.52286877 -0.0035808 4.97213218 -0.00172773 6.42138672 0.00244141 C8.64687928 0.00778998 10.87217001 0.0024959 13.09765625 -0.00390625 C14.50260461 -0.00324547 15.90755285 -0.0019643 17.3125 0 C18.59962891 0.00112793 19.88675781 0.00225586 21.21289062 0.00341797 C24.15625 0.1328125 24.15625 0.1328125 25.15625 1.1328125 C25.28125 4.6328125 25.28125 4.6328125 25.15625 8.1328125 C23.24775052 10.04131198 19.84146226 9.26340883 17.3125 9.265625 C16.62820923 9.26658173 15.94391846 9.26753845 15.2388916 9.26852417 C13.78963123 9.2692058 12.34036782 9.26735273 10.89111328 9.26318359 C8.66562072 9.25783502 6.44032999 9.2631291 4.21484375 9.26953125 C2.80989539 9.26887047 1.40494715 9.2675893 0 9.265625 C-1.28712891 9.26449707 -2.57425781 9.26336914 -3.90039062 9.26220703 C-6.84375 9.1328125 -6.84375 9.1328125 -7.84375 8.1328125 C-7.96875 4.6328125 -7.96875 4.6328125 -7.84375 1.1328125 C-5.93525052 -0.77568698 -2.52896226 0.00221617 0 0 Z " fill="#323132" transform="translate(184.84375,34.8671875)"/>
<path d="M0 0 C0.68429077 -0.00095673 1.36858154 -0.00191345 2.0736084 -0.00289917 C3.52286877 -0.0035808 4.97213218 -0.00172773 6.42138672 0.00244141 C8.64687928 0.00778998 10.87217001 0.0024959 13.09765625 -0.00390625 C14.50260461 -0.00324547 15.90755285 -0.0019643 17.3125 0 C18.59962891 0.00112793 19.88675781 0.00225586 21.21289062 0.00341797 C24.15625 0.1328125 24.15625 0.1328125 25.15625 1.1328125 C25.28125 4.6328125 25.28125 4.6328125 25.15625 8.1328125 C23.24775052 10.04131198 19.84146226 9.26340883 17.3125 9.265625 C16.62820923 9.26658173 15.94391846 9.26753845 15.2388916 9.26852417 C13.78963123 9.2692058 12.34036782 9.26735273 10.89111328 9.26318359 C8.66562072 9.25783502 6.44032999 9.2631291 4.21484375 9.26953125 C2.80989539 9.26887047 1.40494715 9.2675893 0 9.265625 C-1.28712891 9.26449707 -2.57425781 9.26336914 -3.90039062 9.26220703 C-6.84375 9.1328125 -6.84375 9.1328125 -7.84375 8.1328125 C-7.96875 4.6328125 -7.96875 4.6328125 -7.84375 1.1328125 C-5.93525052 -0.77568698 -2.52896226 0.00221617 0 0 Z " fill="#373737" transform="translate(184.84375,0.8671875)"/>
<path d="M0 0 C1.30066406 -0.00128906 2.60132813 -0.00257812 3.94140625 -0.00390625 C4.96258545 -0.00076416 4.96258545 -0.00076416 6.00439453 0.00244141 C8.08503515 0.0077901 10.16545989 0.0024957 12.24609375 -0.00390625 C14.19708984 -0.00197266 14.19708984 -0.00197266 16.1875 0 C17.39083984 0.00112793 18.59417969 0.00225586 19.83398438 0.00341797 C22.59375 0.1328125 22.59375 0.1328125 23.59375 1.1328125 C23.63467937 3.46578683 23.63616723 5.79986475 23.59375 8.1328125 C19.89254548 9.82907508 16.98711273 10.38895869 12.92578125 10.3984375 C11.33926758 10.40230469 11.33926758 10.40230469 9.72070312 10.40625 C8.62693359 10.39851563 7.53316406 10.39078125 6.40625 10.3828125 C5.30087891 10.39054687 4.19550781 10.39828125 3.05664062 10.40625 C2.00283203 10.40367188 0.94902344 10.40109375 -0.13671875 10.3984375 C-1.09989014 10.39618164 -2.06306152 10.39392578 -3.05541992 10.39160156 C-5.40625 10.1328125 -5.40625 10.1328125 -7.40625 8.1328125 C-7.59375 4.5703125 -7.59375 4.5703125 -7.40625 1.1328125 C-5.54910943 -0.72432807 -2.48117951 0.00232569 0 0 Z " fill="#2D2C2C" transform="translate(54.40625,17.8671875)"/>
<path d="M0 0 C1.31419922 -0.01224609 2.62839844 -0.02449219 3.98242188 -0.03710938 C5.23474609 -0.03904297 6.48707031 -0.04097656 7.77734375 -0.04296875 C8.93355225 -0.04707764 10.08976074 -0.05118652 11.28100586 -0.05541992 C14.0625 0.1875 14.0625 0.1875 16.0625 2.1875 C15.6875 5.8125 15.6875 5.8125 15.0625 9.1875 C11.1120047 9.37974376 7.16115416 9.55846681 3.20947266 9.72460938 C1.86490434 9.78305475 0.52049202 9.84521076 -0.82373047 9.91113281 C-2.75443337 10.00517443 -4.6858203 10.08482692 -6.6171875 10.1640625 C-7.77976074 10.21643066 -8.94233398 10.26879883 -10.14013672 10.32275391 C-12.9375 10.1875 -12.9375 10.1875 -14.9375 8.1875 C-15.125 4.625 -15.125 4.625 -14.9375 1.1875 C-12.18198489 -1.56801511 -3.71775429 0.00181797 0 0 Z " fill="#343334" transform="translate(191.9375,17.8125)"/>
<path d="M0 0 C1.216875 0.144375 2.43375 0.28875 3.6875 0.4375 C5.8125 3.3125 5.8125 3.3125 7.6875 6.4375 C10.29187233 7.84940564 10.29187233 7.84940564 12.6875 8.4375 C12.72991723 10.77044775 12.72842937 13.10452567 12.6875 15.4375 C11.6875 16.4375 11.6875 16.4375 9.125 16.8125 C4.52287169 16.31044964 1.19464693 14.43911224 -2.3125 11.4375 C-4.42336681 8.03178837 -4.57862213 5.4293319 -4.3125 1.4375 C-3.3125 0.4375 -3.3125 0.4375 0 0 Z " fill="#1C1C1C" transform="translate(4.3125,27.5625)"/>
<path d="M0 0 C1.47668858 0.0133035 2.95331108 0.03716415 4.4296875 0.0703125 C5.18378906 0.07933594 5.93789062 0.08835938 6.71484375 0.09765625 C8.57826004 0.1212438 10.44151343 0.15711531 12.3046875 0.1953125 C12.9646875 2.1753125 13.6246875 4.1553125 14.3046875 6.1953125 C12.0010579 9.05928443 10.87602846 10.11114492 7.17578125 10.65625 C6.04269531 10.62789062 4.90960938 10.59953125 3.7421875 10.5703125 C2.60652344 10.55742188 1.47085938 10.54453125 0.30078125 10.53125 C-2.6953125 10.1953125 -2.6953125 10.1953125 -5.6953125 8.1953125 C-6.0078125 5.1953125 -6.0078125 5.1953125 -5.6953125 2.1953125 C-3.6953125 0.1953125 -3.6953125 0.1953125 0 0 Z " fill="#313033" transform="translate(108.6953125,34.8046875)"/>
<path d="M0 0 C5.43629023 0.43490322 8.7128221 1.6101384 13 5 C15.12508244 8.18762365 15.5020163 10.26512223 16 14 C10.64638783 16.19011407 10.64638783 16.19011407 7.875 15.375 C5.67624491 13.7625796 3.86623869 11.98664118 2 10 C1.401875 9.566875 0.80375 9.13375 0.1875 8.6875 C-1 7 -1 7 -0.6875 3.3125 C-0.460625 2.219375 -0.23375 1.12625 0 0 Z " fill="#242424" transform="translate(20,1)"/>
<path d="M0 0 C3.45826342 -0.05789006 6.91640293 -0.09355821 10.375 -0.125 C11.35984375 -0.14175781 12.3446875 -0.15851562 13.359375 -0.17578125 C14.77089844 -0.18544922 14.77089844 -0.18544922 16.2109375 -0.1953125 C17.51490479 -0.21102295 17.51490479 -0.21102295 18.84521484 -0.22705078 C21 0 21 0 23 2 C22.625 5.625 22.625 5.625 22 9 C18.7 9 15.4 9 12 9 C12.515625 10.093125 13.03125 11.18625 13.5625 12.3125 C15 16 15 16 14 19 C14 18.34 14 17.68 14 17 C13.01 17.33 12.02 17.66 11 18 C10.67 17.34 10.34 16.68 10 16 C10.33 15.34 10.66 14.68 11 14 C10.34 13.67 9.68 13.34 9 13 C9.66 13 10.32 13 11 13 C10.67 11.02 10.34 9.04 10 7 C11.11375 7.061875 12.2275 7.12375 13.375 7.1875 C14.57125 7.125625 15.7675 7.06375 17 7 C19.18490007 4.32357511 19.18490007 4.32357511 19 2 C12.73 1.67 6.46 1.34 0 1 C0 0.67 0 0.34 0 0 Z " fill="#3A3A3A" transform="translate(128,1)"/>
<path d="M0 0 C3.53217579 0.32110689 6.63449506 0.87816502 10 2 C10 3.98 10 5.96 10 8 C8.9275 7.979375 7.855 7.95875 6.75 7.9375 C3.8192941 7.9863451 1.76040886 8.256813 -1 9 C-2 8 -2 8 -2.1875 5.0625 C-2 2 -2 2 0 0 Z " fill="#2A2929" transform="translate(105,35)"/>
<path d="M0 0 C2.31 0 4.62 0 7 0 C7 0.66 7 1.32 7 2 C7.66 2.33 8.32 2.66 9 3 C8.34 4.98 7.68 6.96 7 9 C5.54182203 9.16802051 4.0834516 9.33437143 2.625 9.5 C1.81289062 9.5928125 1.00078125 9.685625 0.1640625 9.78125 C-2 10 -2 10 -4 10 C-3.67 9.01 -3.34 8.02 -3 7 C-0.4375 5.8125 -0.4375 5.8125 2 5 C2 4.01 2 3.02 2 2 C1.34 2 0.68 2 0 2 C0 1.34 0 0.68 0 0 Z " fill="#2D2A2C" transform="translate(9,1)"/>
<path d="M0 0 C1.134375 0.020625 2.26875 0.04125 3.4375 0.0625 C4.5625 4.8125 4.5625 4.8125 3.4375 7.0625 C2.10673011 7.40592449 0.77318021 7.73869874 -0.5625 8.0625 C-1.2225 8.7225 -1.8825 9.3825 -2.5625 10.0625 C-4.85654844 6.62142734 -4.82543056 5.09410191 -4.5625 1.0625 C-3.5625 0.0625 -3.5625 0.0625 0 0 Z " fill="#272727" transform="translate(4.5625,27.9375)"/>
<path d="M0 0 C8.58 0 17.16 0 26 0 C26.33 1.32 26.66 2.64 27 4 C26.01 4.66 25.02 5.32 24 6 C23.34 5.34 22.68 4.68 22 4 C21.01 4.495 21.01 4.495 20 5 C20 4.01 20 3.02 20 2 C13.4 1.67 6.8 1.34 0 1 C0 0.67 0 0.34 0 0 Z " fill="#3C3B3C" transform="translate(180,18)"/>
<path d="M0 0 C1.98 0 3.96 0 6 0 C6 0.66 6 1.32 6 2 C6.66 2.66 7.32 3.32 8 4 C7.34 4 6.68 4 6 4 C5.34 5.32 4.68 6.64 4 8 C3.01 8 2.02 8 1 8 C0 7 0 7 -0.0625 3.4375 C-0.041875 2.303125 -0.02125 1.16875 0 0 Z " fill="#272626" transform="translate(47,19)"/>
<path d="M0 0 C2.64 0 5.28 0 8 0 C7.690625 0.598125 7.38125 1.19625 7.0625 1.8125 C5.89790296 4.08956772 5.89790296 4.08956772 5 7 C2.03 6.505 2.03 6.505 -1 6 C-0.67 4.02 -0.34 2.04 0 0 Z " fill="#383838" transform="translate(159,1)"/>
<path d="M0 0 C3.96 0.33 7.92 0.66 12 1 C12 1.33 12 1.66 12 2 C8.7 2 5.4 2 2 2 C2.515625 3.093125 3.03125 4.18625 3.5625 5.3125 C5 9 5 9 4 12 C4 11.34 4 10.68 4 10 C3.01 10.33 2.02 10.66 1 11 C0.67 10.34 0.34 9.68 0 9 C0.33 8.34 0.66 7.68 1 7 C0.34 6.67 -0.32 6.34 -1 6 C-0.34 6 0.32 6 1 6 C0.67 4.02 0.34 2.04 0 0 Z " fill="#414141" transform="translate(138,8)"/>
<path d="M0 0 C0.66 0 1.32 0 2 0 C2 0.66 2 1.32 2 2 C1.34 2 0.68 2 0 2 C0 3.32 0 4.64 0 6 C0.33 5.01 0.66 4.02 1 3 C2.65 3.33 4.3 3.66 6 4 C5.01 5.98 4.02 7.96 3 10 C1.68 9.34 0.36 8.68 -1 8 C-1.04241723 5.66705225 -1.04092937 3.33297433 -1 1 C-0.67 0.67 -0.34 0.34 0 0 Z " fill="#2D2A2C" transform="translate(178,18)"/>
<path d="M0 0 C0 0.66 0 1.32 0 2 C-3.13850064 2.92553743 -5.93680778 3.11664647 -9.203125 3.09765625 C-10.1828125 3.09443359 -11.1625 3.09121094 -12.171875 3.08789062 C-13.18765625 3.07951172 -14.2034375 3.07113281 -15.25 3.0625 C-16.796875 3.05573242 -16.796875 3.05573242 -18.375 3.04882812 C-20.91672573 3.03706088 -23.45833319 3.02062011 -26 3 C-26 2.34 -26 1.68 -26 1 C-22.22921314 0.83227069 -18.45836341 0.66599875 -14.6875 0.5 C-13.61564453 0.45230469 -12.54378906 0.40460937 -11.43945312 0.35546875 C-9.89741211 0.28779297 -9.89741211 0.28779297 -8.32421875 0.21875 C-7.37635498 0.17685547 -6.42849121 0.13496094 -5.4519043 0.09179688 C-3.63561776 0.0237969 -1.81755902 0 0 0 Z " fill="#3F3B3F" transform="translate(80,42)"/>
<path d="M0 0 C0.33 0 0.66 0 1 0 C1.04241723 2.33294775 1.04092937 4.66702567 1 7 C0 8 0 8 -2.5625 8.0625 C-3.366875 8.041875 -4.17125 8.02125 -5 8 C-5.33 6.35 -5.66 4.7 -6 3 C-4.35 3 -2.7 3 -1 3 C-0.67 2.01 -0.34 1.02 0 0 Z " fill="#272727" transform="translate(16,36)"/>
<path d="M0 0 C1.98 0 3.96 0 6 0 C5.01 0.495 5.01 0.495 4 1 C4 1.66 4 2.32 4 3 C4.66 3.33 5.32 3.66 6 4 C3.94766315 6.2477975 2.99332739 7.0022242 0 8 C-0.98120464 4.94736336 -0.98120464 3.05263664 0 0 Z " fill="#303030" transform="translate(93,1)"/>
<path d="M0 0 C1.875 0.3125 1.875 0.3125 4 1 C6.29013653 4.4352048 6.17842973 5.985331 6 10 C5.01 9.67 4.02 9.34 3 9 C2.67 7.02 2.34 5.04 2 3 C1.34 3 0.68 3 0 3 C0 2.01 0 1.02 0 0 Z " fill="#1F1E1E" transform="translate(30,23)"/>
<path d="M0 0 C0.99 1.485 0.99 1.485 2 3 C3.65 2.67 5.3 2.34 7 2 C6.67 3.98 6.34 5.96 6 8 C4.68 8.33 3.36 8.66 2 9 C0.50178941 5.62902617 0 3.79557881 0 0 Z " fill="#262624" transform="translate(1,12)"/>
<path d="M0 0 C2 1 2 1 3 3 C4.32 2.67 5.64 2.34 7 2 C6.67 3.65 6.34 5.3 6 7 C5.34 7 4.68 7 4 7 C3.67 7.66 3.34 8.32 3 9 C0 3.375 0 3.375 0 0 Z " fill="#393939" transform="translate(133,19)"/>
<path d="M0 0 C0.33 0 0.66 0 1 0 C1 2.31 1 4.62 1 7 C-1.97 6.505 -1.97 6.505 -5 6 C-4.34 5.01 -3.68 4.02 -3 3 C-2.67 2.34 -2.34 1.68 -2 1 C-1.34 1.33 -0.68 1.66 0 2 C0 1.34 0 0.68 0 0 Z " fill="#333031" transform="translate(77,19)"/>
<path d="M0 0 C0.99 0.33 1.98 0.66 3 1 C2.67 2.65 2.34 4.3 2 6 C0.68 6 -0.64 6 -2 6 C-2.33 5.01 -2.66 4.02 -3 3 C-2.01 2.01 -1.02 1.02 0 0 Z " fill="#272627" transform="translate(32,9)"/>
<path d="M0 0 C2.475 0.495 2.475 0.495 5 1 C5.33 1.99 5.66 2.98 6 4 C4.35 4.33 2.7 4.66 1 5 C0.67 3.35 0.34 1.7 0 0 Z " fill="#292626" transform="translate(22,40)"/>
<path d="M0 0 C0.66 0.33 1.32 0.66 2 1 C1.25 2.9375 1.25 2.9375 0 5 C-2.125 5.75 -2.125 5.75 -4 6 C-3.67 4.35 -3.34 2.7 -3 1 C-2.01 0.67 -1.02 0.34 0 0 Z " fill="#222022" transform="translate(11,2)"/>
<path d="M0 0 C1.98 0.66 3.96 1.32 6 2 C5.67 2.66 5.34 3.32 5 4 C2.69 3.67 0.38 3.34 -2 3 C-1 1 -1 1 0 0 Z " fill="#1B1A1C" transform="translate(145,41)"/>
<path d="M0 0 C0.33 1.32 0.66 2.64 1 4 C0.01 3.67 -0.98 3.34 -2 3 C-2 3.99 -2 4.98 -2 6 C-2.66 6 -3.32 6 -4 6 C-4 4.35 -4 2.7 -4 1 C-2.68 0.67 -1.36 0.34 0 0 Z " fill="#212121" transform="translate(52,3)"/>
<path d="" fill="#000000" transform="translate(0,0)"/>
<path d="" fill="#000000" transform="translate(0,0)"/>
</svg>
